# xmcd CD database file
#
# Track frame offsets:
#	299
#	14327
#	38326
#	59515
#	105114
#	154335
#	165351
#	203278
#	215632
#	229211
#
# Disc length: 3282 seconds
#
# Revision: 0
# Processed by: cddbd v1.5.1PL2 Copyright (c) Steve Scherf et al.
# Submitted via: CDex 1.51
#
DISCID=720ccf0a
DTITLE=Club d'Elf - LIVE 3/28/202 Athens, GA
DYEAR=1900
DGENRE=Jazz
TTITLE0=Substance D - Phase 1
TTITLE1=Substance D - Phase 2
TTITLE2=Gator Geek
TTITLE3=Uncle Skulky
TTITLE4=Bass Beatbox
TTITLE5=Ah Ya Win a Win
TTITLE6=Roulte of the Root
TTITLE7=Scorpionic
TTITLE8=Athens Sha'abi
TTITLE9=Sidi Rabi
EXTD=
EXTT0=
EXTT1=
EXTT2=
EXTT3=
EXTT4=
EXTT5=
EXTT6=
EXTT7=
EXTT8=
EXTT9=
PLAYORDER=
